PathFileType	4	(X/Y/Z)	C:/Users/beibeiliu/ov580/test_trc/User2\sequence.28_training_dense_left.trc
DataRate	CameraRate	NumFrames	NumMarkers	Units	OrigDataRate	OrigDataStartFrame	OrigNumFrames
120	120	7	19	mm	120	57	85
Frame#	Time	ThumbCMC			ThumbMCP			ThumbIP			ThumbTip			IndexMCP			IndexPIP			IndexTip			MiddleMCP			MiddlePIP			MiddleTip			RingMCP			RingPIP			RingTip			PinkyMCP			PinkyPIP			PinkyTip			BackHand1			BackHand2			BackHand3	
		X0	Y0	Z0	X1	Y1	Z1	X2	Y2	Z2	X3	Y3	Z3	X4	Y4	Z4	X5	Y5	Z5	X6	Y6	Z6	X7	Y7	Z7	X8	Y8	Z8	X9	Y9	Z9	X10	Y10	Z10	X11	Y11	Z11	X12	Y12	Z12	X13	Y13	Z13	X14	Y14	Z14	X15	Y15	Z15	X16	Y16	Z16	X17	Y17	Z17	X18	Y18	Z18	
56	0.466667	-166.895	62.948	4.31712	-152.167	64.6999	-31.2906	-143.371	73.926	-64.2726	-142.197	78.6851	-88.7549	-170.253	126.817	-35.0664	-156.78	121.02	-62.6776	-148.906	103.657	-84.8605	-191.076	126.965	-48.8323	-176.061	117.992	-81.522	-165.418	92.0709	-103.813	-211.735	116.349	-54.0103	-195.518	109.518	-86.5285	-174.442	86.7601	-98.0752	-228.869	99.9814	-54.9934	-212.533	101.13	-81.9871	-191.232	84.4962	-101.043	-234.943	89.3596	-4.29854	-238.828	60.6033	21.0666	-201.087	84.9802	22.3603	
57	0.475	-169.331	52.131	3.5084	-156.729	54.5142	-32.1328	-152.053	64.531	-68.3395	-149.886	68.3215	-91.8097	-168.297	117.196	-41.7393	-160.28	110.393	-69.7749	-153.512	89.523	-91.7862	-193.196	119.214	-52.6434	-180.916	111.153	-82.5241	-169.324	80.2175	-106.897	-210.467	109.892	-61.3763	-196.688	101.304	-88.1898	-181.453	77.1567	-99.5819	-231.135	92.8708	-59.7106	-214.385	87.5589	-89.4573	-195.858	71.3486	-102.878	-234.186	81.257	-4.76135	-234.525	58.9613	21.3025	-202.577	77.7326	21.5418	
58	0.483333	-170.134	41.9391	-1.81388	-164.016	37.9137	-39.2172	-157.39	39.6738	-72.5894	-155.254	40.9125	-99.94	-179.099	99.4554	-54.8308	-170.823	88.1167	-83.0545	-165.952	58.4444	-103.131	-204.419	96.4661	-65.1406	-190.096	79.2379	-98.6543	-178.99	47.8678	-112.84	-223.146	84.8871	-70.8997	-209.237	68.7331	-98.3799	-191.912	44.4789	-103.718	-241.498	67.4509	-69.6236	-224.118	56.6038	-93.6349	-201.641	34.6891	-101.634	-235.744	72.4248	-11.3562	-239.986	49.0276	17.8441	-207.191	71.2253	12.3054	
59	0.491667	-172.626	32.0353	-7.16786	-167.448	16.1308	-41.9699	-160.116	7.67666	-74.1044	-157.579	-0.0870993	-99.5275	-188.209	66.3226	-80.209	-176.442	44.9763	-100.976	-172.507	17.1908	-104.855	-213.411	54.5762	-86.6895	-198.186	32.3997	-106.965	-184.836	-3.10373	-108.123	-230.16	39.533	-86.9781	-211.752	17.7236	-103.067	-190.271	-8.78611	-96.7367	-247.028	23.5255	-73.6952	-224.81	2.23098	-94.4897	-201.753	-9.18066	-89.1605	-246.23	47.4429	-20.2244	-244.863	39.3662	11.3303	-209.453	62.6923	-1.48572	
60	0.5	-168.373	41.9067	-8.01434	-153.012	19.8601	-34.6599	-139.309	1.9688	-66.9171	-135.744	-11.3393	-84.3028	-187.101	46.6825	-84.6292	-169.125	23.7383	-101.173	-150.96	-7.1087	-95.0761	-200.279	28.7393	-91.1937	-180.748	2.94902	-102.052	-152.21	-24.3562	-91.8483	-215.22	6.69417	-87.1528	-191.43	-15.6725	-93.8087	-164.66	-25.9596	-79.0455	-226.483	-8.79974	-72.2955	-200.487	-28.0334	-80.5041	-172.609	-32.2581	-71.1662	-238.828	31.2081	-32.7094	-239.191	32.1245	5.97145	-215.435	53.9231	-14.0709	
61	0.508333	-174.389	62.5468	-11.7715	-142.975	49.5066	-29.1635	-119.231	34.2865	-51.2127	-106.291	16.9526	-69.8187	-179.189	40.7618	-87.4419	-148.834	27.9487	-96.2238	-120.56	16.3097	-84.9636	-179.557	18.614	-90.0347	-146.541	3.77454	-91.7984	-116.256	-4.25135	-73.6492	-185.763	-7.5159	-79.9505	-152.656	-12.7647	-81.9904	-126.007	-11.3634	-59.3627	-188.605	-25.737	-64.6536	-155.539	-26.0028	-66.1784	-133.639	-12.7736	-53.0398	-226.438	11.2295	-36.8694	-233.396	19.5644	-3.02657	-220.578	53.5409	-21.9957	
62	0.516667	-196.871	72.8124	-20.0197	-160.984	76.9434	-38.5418	-133.393	74.2686	-53.7135	-111.259	60.9974	-69.9979	-175.502	42.8397	-92.6102	-146.895	48.1494	-97.6216	-114.89	52.1787	-84.2483	-168.345	22.014	-88.8801	-130.939	31.9798	-90.1117	-102.859	39.3375	-70.6928	-157.567	0.634887	-77.169	-129.754	13.41	-79.2417	-109.007	33.9057	-56.0642	-155.64	-14.0855	-57.8973	-125.473	0.499819	-60.7633	-110.331	25.5478	-49.2853	-210.9	0.884422	-32.3738	-222.255	8.53043	-4.06443	-225.484	36.1306	-30.0057	
